{"title":"Maan - Perfect World (2016 Pop)","uid":13479113,"size":69659640,"categoryP":"video","categoryS":"music_videos","magnet":"?xt=urn:btih:bfaf5e482b2deded92dc8e8b6bc09e1f74cad09c&amp;dn=Maan+-+Perfect+World+%282016+Pop%29&amp;tr=udp%3A%2F%2Ftracker.leechers-paradise.org%3A6969&amp;tr=udp%3A%2F%2Fzer0day.ch%3A1337&amp;tr=udp%3A%2F%2Fopen.demonii.com%3A1337&amp;tr=udp%3A%2F%2Ftracker.coppersurfer.tk%3A6969&amp;tr=udp%3A%2F%2Fexodus.desync.com%3A6969","seeders":0,"leechers":0,"uploader":"MeRaDil","files":1,"time":1455041817,"description":"MAAN - PERFECT WORLD\r\n\r\n \nhttp://gifyu.com/images/maan01.png\r\n \nhttp://gifyu.com/images/Maan.png\r\n\r\n\r\nGeneral\r\nMaan - Perfect World\r\nFormat                                   : MPEG-4\r\nFormat profile                           : Base Media\r\nCodec ID                                 : isom\r\nFile size                                : 66.4 MiB\r\nDuration                                 : 3mn 22s\r\nOverall bit rate                         : 2 757 Kbps\r\nMusicVid name                            : Perfect World\r\nPerformer                                : Maan\r\nGenre                                    : Pop\r\nContentType                              : Music Video\r\nRecorded date                            : 2016\r\nWriting application                      : Lavf56.32.100 / MeRaDil\r\nCover                                    : Yes\r\nReleasetime                              : The Netherlands . february 8 . 2016\r\n\r\nVideo\r\nID                                       : 1\r\nFormat                                   : AVC\r\nFormat/Info                              : Advanced Video Codec\r\nFormat profile                           :   \r\nFormat settings, CABAC                   : Yes\r\nFormat settings, ReFrames                : 2 frames\r\nCodec ID                                 : avc1\r\nCodec ID/Info                            : Advanced Video Coding\r\nDuration                                 : 3mn 22s\r\nBit rate                                 : 2 476 Kbps\r\nWidth                                    : 1 920 pixels\r\nHeight                                   : 1 080 pixels\r\nDisplay aspect ratio                     : 16:9\r\nFrame rate mode                          : Constant\r\nFrame rate                               : 25.000 fps\r\nColor space                              : YUV\r\nChroma subsampling                       : 4:2:0\r\nBit depth                                : 8 bits\r\nScan type                                : Progressive\r\nBits/(Pixel*Frame)                       : 0.048\r\nStream size                              : 59.6 MiB (90%)\r\n\r\nAudio\r\nID                                       : 2\r\nFormat                                   : AAC\r\nFormat/Info                              : Advanced Audio Codec\r\nFormat profile                           : LC\r\nCodec ID                                 : 40\r\nDuration                                 : 3mn 22s\r\nBit rate mode                            : Constant\r\nBit rate                                 : 256 Kbps\r\nChannel(s)                               : 2 channels\r\nChannel positions                        : Front: L R\r\nSampling rate                            : 44.1 KHz\r\nCompression mode                         : Lossy\r\nStream size                              : 6.17 MiB (9%)\r\n\r\nThe Voice of Holland Winner 2016 * Promo * Pop/Dance","torrent":{"xt":"urn:btih:bfaf5e482b2deded92dc8e8b6bc09e1f74cad09c","amp;dn":"Maan+-+Perfect+World+%282016+Pop%29","amp;tr":["udp%3A%2F%2Ftracker.leechers-paradise.org%3A6969","udp%3A%2F%2Fzer0day.ch%3A1337","udp%3A%2F%2Fopen.demonii.com%3A1337","udp%3A%2F%2Ftracker.coppersurfer.tk%3A6969","udp%3A%2F%2Fexodus.desync.com%3A6969"],"infoHash":"bfaf5e482b2deded92dc8e8b6bc09e1f74cad09c","infoHashBuffer":{"type":"Buffer","data":[191,175,94,72,43,45,237,237,146,220,142,139,107,192,158,31,116,202,208,156]},"announce":[],"urlList":[]}}